<svg width="1300" height="1300" viewBox="0 0 1300 1300" fill="none" xmlns="http://www.w3.org/2000/svg">
<path opacity="0.987" fill-rule="evenodd" clip-rule="evenodd" d="M458.5 294.5C534.497 294.2 607.497 308.7 677.5 338C721.468 357.061 759.968 383.894 793 418.5C800.717 427.883 808.051 437.549 815 447.5C815.667 492.833 815.667 538.167 815 583.5C805.539 542.529 796.206 501.529 787 460.5C770.624 441.456 751.791 425.29 730.5 412C664.74 373.266 593.573 354.099 517 354.5C502.474 354.702 487.974 355.368 473.5 356.5C473.5 429.833 473.5 503.167 473.5 576.5C569.247 586.305 664.913 596.805 760.5 608C637.165 608.833 513.832 608.667 390.5 607.5C400.516 597.318 410.349 586.985 420 576.5C420.5 483.167 420.667 389.834 420.5 296.5C433.333 296.068 446 295.401 458.5 294.5Z" fill="white"/>
<path opacity="0.992" fill-rule="evenodd" clip-rule="evenodd" d="M1127.5 363.5C1142.9 363.305 1158.23 363.971 1173.5 365.5C1174.5 531.832 1174.83 698.165 1174.5 864.5C1108.42 857.478 1043.42 862.978 979.501 881C942.941 891.605 909.608 908.272 879.5 931C864.747 938.187 852.914 935.02 844.001 921.5C839.767 909.667 842.267 899.5 851.501 891C887.981 860.757 929.314 839.424 975.501 827C1026.57 813.126 1078.57 806.959 1131.5 808.5C1131.5 676.833 1131.5 545.167 1131.5 413.5C1057.11 406.143 987.775 421.31 923.501 459C907.538 469.286 893.037 481.452 880 495.5C872.371 529.322 864.372 562.989 856.001 596.5C855.334 560.167 855.334 523.833 856.001 487.5C879.695 453.138 910.195 426.638 947.501 408C1004.4 380.275 1064.4 365.441 1127.5 363.5Z" fill="white"/>
<path opacity="0.971" fill-rule="evenodd" clip-rule="evenodd" d="M142.5 629.5C149.91 629.149 156.91 630.649 163.5 634C164.357 634.689 165.023 635.522 165.5 636.5C164 639.5 162.5 642.5 161 645.5C154.767 640.618 147.934 639.451 140.5 642C136.443 646.599 137.443 649.932 143.5 652C150.192 652.922 156.525 654.922 162.5 658C171.273 676.274 165.439 686.107 145 687.5C139.66 687.099 134.493 685.932 129.5 684C127.334 682.998 125.667 681.498 124.5 679.5C125.611 676.259 127.444 673.592 130 671.5C136.931 676.381 144.431 677.548 152.5 675C155.978 672.294 156.311 669.294 153.5 666C146.326 664.529 139.326 662.529 132.5 660C125.987 653.411 124.82 645.911 129 637.5C132.601 633.123 137.101 630.457 142.5 629.5Z" fill="white"/>
<path opacity="0.985" fill-rule="evenodd" clip-rule="evenodd" d="M176.5 630.5C180.167 630.5 183.833 630.5 187.5 630.5C187.5 638.167 187.5 645.833 187.5 653.5C194.167 653.5 200.833 653.5 207.5 653.5C207.5 645.833 207.5 638.167 207.5 630.5C211.167 630.5 214.833 630.5 218.5 630.5C218.5 649.167 218.5 667.833 218.5 686.5C214.833 686.5 211.167 686.5 207.5 686.5C207.5 679.167 207.5 671.833 207.5 664.5C200.833 664.5 194.167 664.5 187.5 664.5C187.5 671.833 187.5 679.167 187.5 686.5C183.833 686.5 180.167 686.5 176.5 686.5C176.5 667.833 176.5 649.167 176.5 630.5Z" fill="white"/>
<path opacity="0.968" fill-rule="evenodd" clip-rule="evenodd" d="M246.5 630.5C249.247 630.187 251.914 630.52 254.5 631.5C261.21 649.801 268.21 667.968 275.5 686C271.5 686.667 267.5 686.667 263.5 686C261.804 683.413 260.804 680.579 260.5 677.5C253.8 677.17 247.134 677.503 240.5 678.5C239.695 680.915 238.695 683.249 237.5 685.5C233.5 686.833 229.5 686.833 225.5 685.5C232.703 667.221 239.703 648.888 246.5 630.5ZM249.5 650.5C252.097 655.422 254.431 660.588 256.5 666C252.459 666.827 248.459 666.66 244.5 665.5C246.771 660.686 248.438 655.686 249.5 650.5Z" fill="white"/>
<path opacity="0.967" fill-rule="evenodd" clip-rule="evenodd" d="M282.5 630.5C286.5 630.5 290.5 630.5 294.5 630.5C294.5 638.167 294.5 645.833 294.5 653.5C300.833 653.5 307.167 653.5 313.5 653.5C313.5 645.833 313.5 638.167 313.5 630.5C317.167 630.5 320.833 630.5 324.5 630.5C324.5 649.167 324.5 667.833 324.5 686.5C320.833 686.5 317.167 686.5 313.5 686.5C313.5 679.167 313.5 671.833 313.5 664.5C307.167 664.5 300.833 664.5 294.5 664.5C294.5 671.833 294.5 679.167 294.5 686.5C290.5 686.5 286.5 686.5 282.5 686.5C282.5 667.833 282.5 649.167 282.5 630.5Z" fill="white"/>
<path opacity="0.978" fill-rule="evenodd" clip-rule="evenodd" d="M337.5 630.5C347.506 630.334 357.506 630.5 367.5 631C374.621 633.813 378.288 639.146 378.5 647C378.336 655.008 374.669 660.674 367.5 664C371.959 671.084 376.292 678.25 380.5 685.5C375.833 686.833 371.167 686.833 366.5 685.5C362.878 678.42 358.878 671.587 354.5 665C352.527 664.505 350.527 664.338 348.5 664.5C348.5 671.833 348.5 679.167 348.5 686.5C344.833 686.5 341.167 686.5 337.5 686.5C337.5 667.833 337.5 649.167 337.5 630.5ZM348.5 641.5C353.844 641.334 359.177 641.501 364.5 642C367.439 646.018 367.105 649.685 363.5 653C358.511 653.499 353.511 653.666 348.5 653.5C348.5 649.5 348.5 645.5 348.5 641.5Z" fill="white"/>
<path opacity="0.985" fill-rule="evenodd" clip-rule="evenodd" d="M389.5 630.5C393.5 630.5 397.5 630.5 401.5 630.5C401.5 649.167 401.5 667.833 401.5 686.5C397.5 686.5 393.5 686.5 389.5 686.5C389.5 667.833 389.5 649.167 389.5 630.5Z" fill="white"/>
<path opacity="0.974" fill-rule="evenodd" clip-rule="evenodd" d="M429.5 629.5C436.963 629.259 443.963 630.926 450.5 634.5C451.151 638.581 449.984 642.248 447 645.5C440.804 640.621 433.971 639.455 426.5 642C423.582 645.472 423.915 648.472 427.5 651C434.81 652.573 441.81 654.907 448.5 658C455.333 666.545 455 674.878 447.5 683C438.171 688.147 428.505 688.813 418.5 685C415.274 683.894 412.607 682.061 410.5 679.5C411.625 676.219 413.458 673.552 416 671.5C424.026 676.965 432.36 677.631 441 673.5C441.944 670.653 441.444 668.153 439.5 666C433.927 664.348 428.261 663.014 422.5 662C415.834 659.495 412.5 654.662 412.5 647.5C413.464 636.873 419.13 630.873 429.5 629.5Z" fill="white"/>
<path opacity="0.97" fill-rule="evenodd" clip-rule="evenodd" d="M479.5 630.5C482.167 630.5 484.833 630.5 487.5 630.5C494.167 649.167 500.833 667.833 507.5 686.5C503.5 686.5 499.5 686.5 495.5 686.5C495.388 678.111 491.221 675.111 483 677.5C479.833 677.667 476.667 677.833 473.5 678C472.407 680.443 471.407 682.943 470.5 685.5C466.555 686.491 462.555 686.824 458.5 686.5C465.105 667.685 472.105 649.019 479.5 630.5ZM482.5 649.5C484.875 654.953 486.875 660.619 488.5 666.5C484.774 666.823 481.107 666.489 477.5 665.5C479.575 660.276 481.242 654.942 482.5 649.5Z" fill="white"/>
<path opacity="0.977" fill-rule="evenodd" clip-rule="evenodd" d="M515.5 630.5C526.578 630.069 537.578 630.569 548.5 632C556.347 637.552 558.18 644.718 554 653.5C552.442 655.359 550.609 656.859 548.5 658C552.333 659.167 554.833 661.667 556 665.5C558.912 675.846 555.412 682.679 545.5 686C535.506 686.5 525.506 686.666 515.5 686.5C515.5 667.833 515.5 649.167 515.5 630.5ZM526.5 641.5C531.844 641.334 537.177 641.501 542.5 642C545.592 646.118 544.925 649.451 540.5 652C535.845 652.499 531.179 652.666 526.5 652.5C526.5 648.833 526.5 645.167 526.5 641.5ZM526.5 663.5C531.844 663.334 537.177 663.501 542.5 664C546.5 667.667 546.5 671.333 542.5 675C537.177 675.499 531.844 675.666 526.5 675.5C526.5 671.5 526.5 667.5 526.5 663.5Z" fill="white"/>
<path opacity="0.969" fill-rule="evenodd" clip-rule="evenodd" d="M566.5 630.5C578.167 630.5 589.833 630.5 601.5 630.5C601.665 634.182 601.499 637.848 601 641.5C594.207 652.921 587.041 664.088 579.5 675C587.159 675.5 594.826 675.666 602.5 675.5C602.5 679.167 602.5 682.833 602.5 686.5C590.167 686.5 577.833 686.5 565.5 686.5C565.335 683.15 565.502 679.817 566 676.5C573.041 664.916 580.208 653.416 587.5 642C580.508 641.5 573.508 641.334 566.5 641.5C566.5 637.833 566.5 634.167 566.5 630.5Z" fill="white"/>
<path opacity="0.983" fill-rule="evenodd" clip-rule="evenodd" d="M664.5 630.5C699.2 624.034 712.7 638.034 705 672.5C703.053 680.114 698.22 684.614 690.5 686C681.84 686.5 673.173 686.666 664.5 686.5C664.5 667.833 664.5 649.167 664.5 630.5ZM675.5 641.5C689.8 638.472 696.133 644.138 694.5 658.5C696.133 672.862 689.8 678.528 675.5 675.5C675.5 664.167 675.5 652.833 675.5 641.5Z" fill="white"/>
<path opacity="0.97" fill-rule="evenodd" clip-rule="evenodd" d="M731.5 630.5C734.167 630.5 736.833 630.5 739.5 630.5C746.167 649.167 752.833 667.833 759.5 686.5C755.5 686.5 751.5 686.5 747.5 686.5C747.388 678.111 743.221 675.111 735 677.5C731.833 677.667 728.667 677.833 725.5 678C724.407 680.443 723.407 682.943 722.5 685.5C718.555 686.491 714.555 686.824 710.5 686.5C717.105 667.685 724.105 649.019 731.5 630.5ZM734.5 649.5C736.875 654.953 738.875 660.619 740.5 666.5C736.774 666.823 733.107 666.489 729.5 665.5C731.575 660.276 733.242 654.942 734.5 649.5Z" fill="white"/>
<path opacity="0.962" fill-rule="evenodd" clip-rule="evenodd" d="M758.5 631.5C762.351 630.191 766.351 630.191 770.5 631.5C774.033 642.934 777.867 654.267 782 665.5C785.81 653.905 789.31 642.238 792.5 630.5C796.5 630.5 800.5 630.5 804.5 630.5C798.975 648.574 793.142 666.574 787 684.5C783.929 686.768 780.596 687.101 777 685.5C771.098 667.29 764.931 649.29 758.5 631.5Z" fill="white"/>
<path opacity="0.952" fill-rule="evenodd" clip-rule="evenodd" d="M812.5 630.5C816.167 630.5 819.833 630.5 823.5 630.5C823.5 645.5 823.5 660.5 823.5 675.5C832.5 675.5 841.5 675.5 850.5 675.5C850.5 679.167 850.5 682.833 850.5 686.5C837.833 686.5 825.167 686.5 812.5 686.5C812.5 667.833 812.5 649.167 812.5 630.5Z" fill="white"/>
<path opacity="0.968" fill-rule="evenodd" clip-rule="evenodd" d="M875.5 630.5C878.247 630.187 880.914 630.52 883.5 631.5C890.21 649.801 897.21 667.968 904.5 686C900.5 686.667 896.5 686.667 892.5 686C890.804 683.413 889.804 680.579 889.5 677.5C882.8 677.17 876.134 677.503 869.5 678.5C868.695 680.915 867.695 683.249 866.5 685.5C862.5 686.833 858.5 686.833 854.5 685.5C861.703 667.221 868.703 648.888 875.5 630.5ZM878.5 650.5C881.097 655.422 883.431 660.588 885.5 666C881.459 666.827 877.459 666.66 873.5 665.5C875.771 660.686 877.438 655.686 878.5 650.5Z" fill="white"/>
<path opacity="0.983" fill-rule="evenodd" clip-rule="evenodd" d="M902.5 630.5C916.5 630.5 930.5 630.5 944.5 630.5C944.5 634.167 944.5 637.833 944.5 641.5C939.5 641.5 934.5 641.5 929.5 641.5C929.5 656.5 929.5 671.5 929.5 686.5C925.5 686.5 921.5 686.5 917.5 686.5C917.5 671.5 917.5 656.5 917.5 641.5C912.5 641.5 907.5 641.5 902.5 641.5C902.5 637.833 902.5 634.167 902.5 630.5Z" fill="white"/>
<path opacity="0.973" fill-rule="evenodd" clip-rule="evenodd" d="M127.5 708.5C137.172 708.334 146.839 708.5 156.5 709C161.573 710.406 165.073 713.572 167 718.5C170.336 729.646 166.836 737.48 156.5 742C150.509 742.499 144.509 742.666 138.5 742.5C138.5 749.833 138.5 757.167 138.5 764.5C134.833 764.5 131.167 764.5 127.5 764.5C127.5 745.833 127.5 727.167 127.5 708.5ZM138.5 718.5C142.846 718.334 147.179 718.501 151.5 719C157.136 722.203 157.802 726.203 153.5 731C148.511 731.499 143.511 731.666 138.5 731.5C138.5 727.167 138.5 722.833 138.5 718.5Z" fill="white"/>
<path opacity="0.983" fill-rule="evenodd" clip-rule="evenodd" d="M175.5 708.5C188.167 708.5 200.833 708.5 213.5 708.5C213.5 711.833 213.5 715.167 213.5 718.5C204.5 718.5 195.5 718.5 186.5 718.5C186.5 722.5 186.5 726.5 186.5 730.5C194.167 730.5 201.833 730.5 209.5 730.5C209.5 734.167 209.5 737.833 209.5 741.5C201.833 741.5 194.167 741.5 186.5 741.5C186.5 745.5 186.5 749.5 186.5 753.5C195.5 753.5 204.5 753.5 213.5 753.5C213.5 757.167 213.5 760.833 213.5 764.5C200.833 764.5 188.167 764.5 175.5 764.5C175.5 745.833 175.5 727.167 175.5 708.5Z" fill="white"/>
<path opacity="0.992" fill-rule="evenodd" clip-rule="evenodd" d="M222.5 708.5C231.506 708.334 240.506 708.5 249.5 709C255.91 710.446 260.077 714.279 262 720.5C271.05 755.279 257.884 769.945 222.5 764.5C222.5 745.833 222.5 727.167 222.5 708.5ZM233.5 718.5C247.667 716.168 253.667 722.002 251.5 736C253.579 750.088 247.579 755.921 233.5 753.5C233.5 741.833 233.5 730.167 233.5 718.5Z" fill="white"/>
<path opacity="0.979" fill-rule="evenodd" clip-rule="evenodd" d="M286.5 708.5C289.448 708.223 292.281 708.556 295 709.5C302.139 727.753 308.972 746.086 315.5 764.5C311.445 764.824 307.445 764.491 303.5 763.5C302.593 760.943 301.593 758.443 300.5 756C293.842 755.5 287.175 755.334 280.5 755.5C279.833 758.5 279.167 761.5 278.5 764.5C274.154 764.666 269.821 764.499 265.5 764C272.996 745.676 279.996 727.176 286.5 708.5ZM290.5 727.5C292.668 732.657 294.668 737.99 296.5 743.5C292.893 744.489 289.226 744.823 285.5 744.5C286.964 738.775 288.631 733.108 290.5 727.5Z" fill="white"/>
<path opacity="0.988" fill-rule="evenodd" clip-rule="evenodd" d="M333.5 707.5C346.898 706.014 355.231 711.681 358.5 724.5C354.486 724.666 350.486 724.499 346.5 724C344.904 720.7 342.237 719.2 338.5 719.5C333.995 719.167 331.161 721.167 330 725.5C329.833 729.167 329.667 732.833 329.5 736.5C329.396 740.947 329.896 745.28 331 749.5C336 754.833 341 754.833 346 749.5C347.128 747.655 347.628 745.655 347.5 743.5C344.833 743.5 342.167 743.5 339.5 743.5C339.5 739.833 339.5 736.167 339.5 732.5C346.167 732.5 352.833 732.5 359.5 732.5C359.774 739.23 359.274 745.897 358 752.5C352.347 763.284 343.514 767.117 331.5 764C323.47 761.966 318.97 756.8 318 748.5C317.333 740.833 317.333 733.167 318 725.5C319.15 715.862 324.316 709.862 333.5 707.5Z" fill="white"/>
<path opacity="0.985" fill-rule="evenodd" clip-rule="evenodd" d="M382.5 707.5C396.26 705.611 404.76 711.278 408 724.5C408.853 733.886 408.519 743.219 407 752.5C400.319 764.286 390.486 767.786 377.5 763C368.239 756.655 364.572 747.821 366.5 736.5C366.487 731.111 366.987 725.778 368 720.5C370.524 713.471 375.357 709.137 382.5 707.5ZM385.5 718.5C390.382 718.175 393.882 720.175 396 724.5C396.667 732.167 396.667 739.833 396 747.5C393.598 753.092 389.431 754.925 383.5 753C381.274 751.773 379.774 749.939 379 747.5C378.333 739.833 378.333 732.167 379 724.5C380.436 721.558 382.603 719.558 385.5 718.5Z" fill="white"/>
<path opacity="0.988" fill-rule="evenodd" clip-rule="evenodd" d="M431.5 707.5C444.898 706.014 453.231 711.681 456.5 724.5C452.486 724.666 448.486 724.499 444.5 724C442.904 720.7 440.237 719.2 436.5 719.5C431.995 719.167 429.161 721.167 428 725.5C427.833 729.167 427.667 732.833 427.5 736.5C427.396 740.947 427.896 745.28 429 749.5C434 754.833 439 754.833 444 749.5C445.128 747.655 445.628 745.655 445.5 743.5C442.833 743.5 440.167 743.5 437.5 743.5C437.5 739.833 437.5 736.167 437.5 732.5C444.167 732.5 450.833 732.5 457.5 732.5C457.774 739.23 457.274 745.897 456 752.5C450.347 763.284 441.514 767.117 429.5 764C421.47 761.966 416.97 756.8 416 748.5C415.333 740.833 415.333 733.167 416 725.5C417.15 715.862 422.316 709.862 431.5 707.5Z" fill="white"/>
<path opacity="0.974" fill-rule="evenodd" clip-rule="evenodd" d="M465.5 708.5C469.5 708.5 473.5 708.5 477.5 708.5C477.5 727.167 477.5 745.833 477.5 764.5C473.5 764.5 469.5 764.5 465.5 764.5C465.5 745.833 465.5 727.167 465.5 708.5Z" fill="white"/>
<path opacity="0.977" fill-rule="evenodd" clip-rule="evenodd" d="M488.5 708.5C492.167 708.5 495.833 708.5 499.5 708.5C499.334 716.84 499.5 725.173 500 733.5C505.376 725.247 510.876 717.08 516.5 709C521.167 708.333 525.833 708.333 530.5 709C524.973 716.361 519.639 723.861 514.5 731.5C520.866 742.037 527.033 752.704 533 763.5C540 745.5 547 727.5 554 709.5C556.719 708.556 559.552 708.223 562.5 708.5C569.369 727.108 576.036 745.775 582.5 764.5C578.5 764.5 574.5 764.5 570.5 764.5C569.833 761.5 569.167 758.5 568.5 755.5C561.825 755.334 555.158 755.5 548.5 756C547.071 758.69 546.071 761.523 545.5 764.5C536.808 764.831 528.141 764.498 519.5 763.5C515.08 756.329 510.914 748.996 507 741.5C505.056 745.11 502.723 748.443 500 751.5C499.501 755.821 499.334 760.154 499.5 764.5C495.833 764.5 492.167 764.5 488.5 764.5C488.5 745.833 488.5 727.167 488.5 708.5ZM557.5 727.5C560.269 732.801 562.269 738.468 563.5 744.5C559.833 744.5 556.167 744.5 552.5 744.5C554.365 738.903 556.032 733.237 557.5 727.5Z" fill="white"/>
<path opacity="0.974" fill-rule="evenodd" clip-rule="evenodd" d="M609.5 708.5C613.5 708.5 617.5 708.5 621.5 708.5C621.5 727.167 621.5 745.833 621.5 764.5C617.5 764.5 613.5 764.5 609.5 764.5C609.5 745.833 609.5 727.167 609.5 708.5Z" fill="white"/>
<path opacity="0.978" fill-rule="evenodd" clip-rule="evenodd" d="M631.5 708.5C636.43 708.197 641.263 708.531 646 709.5C651.728 721.956 657.728 734.289 664 746.5C664.5 733.838 664.667 721.171 664.5 708.5C668.167 708.5 671.833 708.5 675.5 708.5C675.5 727.167 675.5 745.833 675.5 764.5C670.57 764.803 665.737 764.469 661 763.5C654.728 751.289 648.728 738.956 643 726.5C642.5 739.162 642.333 751.829 642.5 764.5C638.833 764.5 635.167 764.5 631.5 764.5C631.5 745.833 631.5 727.167 631.5 708.5Z" fill="white"/>
<path opacity="0.979" fill-rule="evenodd" clip-rule="evenodd" d="M700.5 707.5C709.53 706.255 717.53 708.422 724.5 714C723.455 717.265 721.789 720.098 719.5 722.5C713.194 718.437 706.527 717.604 699.5 720C695.517 723.408 695.85 726.408 700.5 729C707.368 730.383 714.035 732.383 720.5 735C722.617 736.731 724.117 738.898 725 741.5C727.972 752.632 724.138 760.132 713.5 764C703.695 765.608 694.362 764.274 685.5 760C684.426 759.261 683.759 758.261 683.5 757C684.951 754.047 686.618 751.213 688.5 748.5C693.19 752.177 698.523 754.177 704.5 754.5C708.143 754.232 711.31 752.899 714 750.5C714.896 747.975 714.396 745.808 712.5 744C705.415 742.319 698.415 740.319 691.5 738C683.875 729.678 683.542 721.012 690.5 712C693.815 710.17 697.149 708.67 700.5 707.5Z" fill="white"/>
<path opacity="0.997" fill-rule="evenodd" clip-rule="evenodd" d="M727.5 708.5C741.167 708.5 754.833 708.5 768.5 708.5C768.5 711.833 768.5 715.167 768.5 718.5C763.5 718.5 758.5 718.5 753.5 718.5C753.5 733.833 753.5 749.167 753.5 764.5C749.833 764.5 746.167 764.5 742.5 764.5C742.5 749.167 742.5 733.833 742.5 718.5C737.5 718.5 732.5 718.5 727.5 718.5C727.5 715.167 727.5 711.833 727.5 708.5Z" fill="white"/>
<path fill-rule="evenodd" clip-rule="evenodd" d="M773.5 708.5C777.167 708.5 780.833 708.5 784.5 708.5C784.5 727.167 784.5 745.833 784.5 764.5C780.833 764.5 777.167 764.5 773.5 764.5C773.5 745.833 773.5 727.167 773.5 708.5Z" fill="white"/>
<path fill-rule="evenodd" clip-rule="evenodd" d="M790.5 708.5C804.5 708.5 818.5 708.5 832.5 708.5C832.5 711.833 832.5 715.167 832.5 718.5C827.5 718.5 822.5 718.5 817.5 718.5C817.5 733.833 817.5 749.167 817.5 764.5C813.5 764.5 809.5 764.5 805.5 764.5C805.5 749.167 805.5 733.833 805.5 718.5C800.5 718.5 795.5 718.5 790.5 718.5C790.5 715.167 790.5 711.833 790.5 708.5Z" fill="white"/>
<path opacity="0.976" fill-rule="evenodd" clip-rule="evenodd" d="M835.5 708.5C839.167 708.5 842.833 708.5 846.5 708.5C846.333 721.171 846.5 733.838 847 746.5C850.069 753.614 855.236 755.447 862.5 752C863.46 750.581 864.293 749.081 865 747.5C865.5 734.504 865.667 721.504 865.5 708.5C869.167 708.5 872.833 708.5 876.5 708.5C876.952 723.905 876.452 739.238 875 754.5C870.954 762.025 864.62 765.358 856 764.5C846.935 765.47 840.601 761.803 837 753.5C835.549 738.572 835.049 723.572 835.5 708.5Z" fill="white"/>
<path fill-rule="evenodd" clip-rule="evenodd" d="M879.5 708.5C893.5 708.5 907.5 708.5 921.5 708.5C921.5 711.833 921.5 715.167 921.5 718.5C916.5 718.5 911.5 718.5 906.5 718.5C906.5 733.833 906.5 749.167 906.5 764.5C902.5 764.5 898.5 764.5 894.5 764.5C894.5 749.167 894.5 733.833 894.5 718.5C889.5 718.5 884.5 718.5 879.5 718.5C879.5 715.167 879.5 711.833 879.5 708.5Z" fill="white"/>
<path opacity="0.974" fill-rule="evenodd" clip-rule="evenodd" d="M925.5 708.5C929.5 708.5 933.5 708.5 937.5 708.5C937.5 727.167 937.5 745.833 937.5 764.5C933.5 764.5 929.5 764.5 925.5 764.5C925.5 745.833 925.5 727.167 925.5 708.5Z" fill="white"/>
<path opacity="0.996" fill-rule="evenodd" clip-rule="evenodd" d="M134.5 792.5C257.334 791.168 380.334 791.168 503.5 792.5C494.214 803.287 484.381 813.621 474 823.5C473.168 831.521 473.335 839.521 474.5 847.5C560.838 844.056 644.172 858.223 724.5 890C762.987 906.191 797.487 928.357 828 956.5C837.228 973.752 834.061 988.252 818.5 1000C807.161 1005.1 796.161 1004.44 785.5 998C746.727 968.782 703.727 947.782 656.5 935C578.999 914.107 500.332 907.94 420.5 916.5C420.829 885.593 420.496 854.76 419.5 824C324.455 813.68 229.455 803.18 134.5 792.5Z" fill="white"/>
</svg>
